<?xml version="1.0" standalone="no"?>
<!DOCTYPE svg PUBLIC "-//W3C//DTD SVG 20010904//EN"
 "http://www.w3.org/TR/2001/REC-SVG-20010904/DTD/svg10.dtd">
<svg version="1.0" xmlns="http://www.w3.org/2000/svg"
 width="1024.000000pt" height="1024.000000pt" viewBox="0 0 1024.000000 1024.000000"
 preserveAspectRatio="xMidYMid meet">
<metadata>
Created by potrace 1.14, written by Peter Selinger 2001-2017
</metadata>
<g transform="translate(0.000000,1024.000000) scale(0.100000,-0.100000)"
fill="#000000" stroke="none">
<path d="M2496 9808 c-157 -21 -300 -140 -340 -282 -23 -80 -25 -116 -26 -348
l0 -218 -40 0 c-23 0 -76 -7 -118 -16 -318 -64 -551 -274 -658 -594 l-29 -85
-2 -3325 c-2 -3203 -2 -3328 16 -3405 48 -208 148 -369 306 -495 89 -71 212
-134 307 -156 121 -30 188 -30 3233 -28 1689 1 3081 4 3095 7 254 50 454 183
585 387 65 101 100 193 124 320 3 19 6 1527 6 3350 0 3535 3 3343 -47 3480
-35 100 -83 178 -178 293 -8 10 -45 43 -82 72 -138 113 -295 177 -464 192
l-74 6 -1 221 c0 122 -2 230 -4 241 -2 11 -6 38 -10 60 -15 99 -96 211 -194
269 -235 138 -553 21 -625 -230 -22 -77 -25 -114 -26 -346 l0 -218 -2130 0
-2130 0 0 218 c0 119 -5 246 -10 282 -37 229 -248 381 -484 348z"/>
</g>
</svg>
